<svg width="1469" height="858" viewBox="0 0 1469 858" fill="none" xmlns="http://www.w3.org/2000/svg">
<g clip-path="url(#clip0_2041_135)">
<rect width="1469" height="858" fill="white"/>
<g opacity="0.6" filter="url(#filter0_f_2041_135)">
<path d="M119 117L471.842 403.412L337.068 866.838H-99.0683L-233.842 403.412L119 117Z" fill="#D8E1FA"/>
</g>
<g opacity="0.8" filter="url(#filter1_f_2041_135)">
<path d="M1144 482L1419.81 682.385L1314.46 1006.61H973.542L868.194 682.385L1144 482Z" fill="#FF7DBD" fill-opacity="0.15"/>
</g>
<g opacity="0.8" filter="url(#filter2_f_2041_135)">
<path d="M435 -115L595.729 1.77612L534.336 190.724H335.664L274.271 1.77612L435 -115Z" fill="#FF7DBD" fill-opacity="0.15"/>
</g>
<g opacity="0.8" filter="url(#filter3_f_2041_135)">
<path d="M1289.5 -59L1616.19 145.185L1491.4 475.565H1087.6L962.812 145.185L1289.5 -59Z" fill="#D8E1FA"/>
</g>
<path d="M85.9599 560.373C85.8617 560.282 85.7829 560.171 85.7282 560.049C85.6735 559.926 85.6442 559.794 85.6418 559.659C85.6394 559.525 85.6641 559.392 85.7144 559.267C85.7647 559.143 85.8396 559.029 85.9345 558.934C86.0295 558.84 86.1426 558.765 86.2671 558.714C86.3916 558.664 86.525 558.639 86.6593 558.642C86.7935 558.644 86.926 558.674 87.0486 558.728C87.1713 558.783 87.2817 558.862 87.3732 558.96L92.7066 564.293C92.8938 564.481 92.999 564.735 92.999 565C92.999 565.265 92.8938 565.519 92.7066 565.707L87.3732 571.04C87.2817 571.138 87.1713 571.217 87.0486 571.272C86.926 571.326 86.7935 571.356 86.6593 571.358C86.525 571.36 86.3916 571.336 86.2671 571.285C86.1426 571.235 86.0295 571.16 85.9345 571.065C85.8396 570.97 85.7647 570.857 85.7144 570.733C85.6641 570.608 85.6394 570.475 85.6418 570.341C85.6442 570.206 85.6735 570.074 85.7282 569.951C85.7829 569.828 85.8617 569.718 85.9599 569.627L89.5866 566H76.6666C76.4014 566 76.147 565.895 75.9595 565.707C75.7719 565.519 75.6666 565.265 75.6666 565C75.6666 564.735 75.7719 564.48 75.9595 564.293C76.147 564.105 76.4014 564 76.6666 564H89.5866L85.9599 560.373Z" fill="#EC4899"/>
<path d="M85.9599 610.373C85.8617 610.282 85.7829 610.171 85.7282 610.049C85.6735 609.926 85.6442 609.794 85.6418 609.659C85.6394 609.525 85.6641 609.392 85.7144 609.267C85.7647 609.143 85.8396 609.029 85.9345 608.934C86.0295 608.84 86.1426 608.765 86.2671 608.714C86.3916 608.664 86.525 608.639 86.6593 608.642C86.7935 608.644 86.926 608.674 87.0486 608.728C87.1713 608.783 87.2817 608.862 87.3732 608.96L92.7066 614.293C92.8938 614.481 92.999 614.735 92.999 615C92.999 615.265 92.8938 615.519 92.7066 615.707L87.3732 621.04C87.2817 621.138 87.1713 621.217 87.0486 621.272C86.926 621.326 86.7935 621.356 86.6593 621.358C86.525 621.36 86.3916 621.336 86.2671 621.285C86.1426 621.235 86.0295 621.16 85.9345 621.065C85.8396 620.97 85.7647 620.857 85.7144 620.733C85.6641 620.608 85.6394 620.475 85.6418 620.341C85.6442 620.206 85.6735 620.074 85.7282 619.951C85.7829 619.828 85.8617 619.718 85.9599 619.627L89.5866 616H76.6666C76.4014 616 76.147 615.895 75.9595 615.707C75.7719 615.519 75.6666 615.265 75.6666 615C75.6666 614.735 75.7719 614.48 75.9595 614.293C76.147 614.105 76.4014 614 76.6666 614H89.5866L85.9599 610.373Z" fill="#EC4899"/>
</g>
<defs>
<filter id="filter0_f_2041_135" x="-426.942" y="-76.1" width="1091.88" height="1136.04" filterUnits="userSpaceOnUse" color-interpolation-filters="sRGB">
<feFlood flood-opacity="0" result="BackgroundImageFix"/>
<feBlend mode="normal" in="SourceGraphic" in2="BackgroundImageFix" result="shape"/>
<feGaussianBlur stdDeviation="96.55" result="effect1_foregroundBlur_2041_135"/>
</filter>
<filter id="filter1_f_2041_135" x="668.194" y="282" width="951.613" height="924.615" filterUnits="userSpaceOnUse" color-interpolation-filters="sRGB">
<feFlood flood-opacity="0" result="BackgroundImageFix"/>
<feBlend mode="normal" in="SourceGraphic" in2="BackgroundImageFix" result="shape"/>
<feGaussianBlur stdDeviation="100" result="effect1_foregroundBlur_2041_135"/>
</filter>
<filter id="filter2_f_2041_135" x="74.2715" y="-315" width="721.457" height="705.724" filterUnits="userSpaceOnUse" color-interpolation-filters="sRGB">
<feFlood flood-opacity="0" result="BackgroundImageFix"/>
<feBlend mode="normal" in="SourceGraphic" in2="BackgroundImageFix" result="shape"/>
<feGaussianBlur stdDeviation="100" result="effect1_foregroundBlur_2041_135"/>
</filter>
<filter id="filter3_f_2041_135" x="709.612" y="-312.2" width="1159.78" height="1040.96" filterUnits="userSpaceOnUse" color-interpolation-filters="sRGB">
<feFlood flood-opacity="0" result="BackgroundImageFix"/>
<feBlend mode="normal" in="SourceGraphic" in2="BackgroundImageFix" result="shape"/>
<feGaussianBlur stdDeviation="126.6" result="effect1_foregroundBlur_2041_135"/>
</filter>
<clipPath id="clip0_2041_135">
<rect width="1469" height="858" fill="white"/>
</clipPath>
</defs>
</svg>
