<svg width="11" height="17" viewBox="0 0 11 17" fill="none" xmlns="http://www.w3.org/2000/svg">
<path d="M5.15877 9.71733C6.36781 9.71733 7.52733 9.23704 8.38224 8.38212C9.23716 7.5272 9.71745 6.36769 9.71745 5.15865C9.71745 3.94962 9.23716 2.7901 8.38224 1.93518C7.52733 1.08026 6.36781 0.599976 5.15877 0.599976C3.94974 0.599976 2.79022 1.08026 1.9353 1.93518C1.08039 2.7901 0.600098 3.94962 0.600098 5.15865C0.600098 6.36769 1.08039 7.5272 1.9353 8.38212C2.79022 9.23704 3.94974 9.71733 5.15877 9.71733ZM5.15877 9.71733V16.1V9.71733Z" fill="#EC4899"/>
<path d="M5.15877 9.71733C6.36781 9.71733 7.52733 9.23704 8.38224 8.38212C9.23716 7.5272 9.71745 6.36769 9.71745 5.15865C9.71745 3.94962 9.23716 2.7901 8.38224 1.93518C7.52733 1.08026 6.36781 0.599976 5.15877 0.599976C3.94974 0.599976 2.79022 1.08026 1.9353 1.93518C1.08039 2.7901 0.600098 3.94962 0.600098 5.15865C0.600098 6.36769 1.08039 7.5272 1.9353 8.38212C2.79022 9.23704 3.94974 9.71733 5.15877 9.71733ZM5.15877 9.71733V16.1" stroke="#EC4899" stroke-width="1.2" stroke-linecap="round" stroke-linejoin="round"/>
</svg>
