<svg width="224" height="224" viewBox="0 0 224 224" fill="none" xmlns="http://www.w3.org/2000/svg">
<g filter="url(#filter0_d_70_136)">
<circle cx="111.8" cy="109.8" r="108" fill="white"/>
</g>
<path d="M128.653 58.32H101.853V74.24C102.973 72.7467 104.627 71.4934 106.813 70.48C109.053 69.4667 111.427 68.96 113.933 68.96C118.413 68.96 122.04 69.92 124.813 71.84C127.64 73.76 129.64 76.1867 130.813 79.12C132.04 82.0534 132.653 85.1467 132.653 88.4C132.653 92.3467 131.88 95.8667 130.333 98.96C128.84 102 126.573 104.4 123.533 106.16C120.547 107.92 116.867 108.8 112.493 108.8C106.68 108.8 102.013 107.36 98.4932 104.48C94.9732 101.6 92.8665 97.7867 92.1732 93.04H101.053C101.64 95.5467 102.947 97.5467 104.973 99.04C107 100.48 109.533 101.2 112.573 101.2C116.36 101.2 119.187 100.053 121.053 97.76C122.973 95.4667 123.933 92.4267 123.933 88.64C123.933 84.8 122.973 81.8667 121.053 79.84C119.133 77.76 116.307 76.72 112.573 76.72C109.96 76.72 107.747 77.3867 105.933 78.72C104.173 80 102.893 81.76 102.093 84H93.4532V50.32H128.653V58.32Z" fill="#3661DA"/>
<path opacity="0.8" d="M59.801 132.648L56.169 139.592V143.8H54.713V139.592L51.065 132.648H52.681L55.433 138.296L58.185 132.648H59.801ZM69.3367 139.08C69.3367 139.357 69.3207 139.651 69.2887 139.96H62.2807C62.3341 140.824 62.6274 141.501 63.1607 141.992C63.7047 142.472 64.3607 142.712 65.1287 142.712C65.7581 142.712 66.2807 142.568 66.6967 142.28C67.1234 141.981 67.4221 141.587 67.5927 141.096H69.1607C68.9261 141.939 68.4567 142.627 67.7527 143.16C67.0487 143.683 66.1741 143.944 65.1287 143.944C64.2967 143.944 63.5501 143.757 62.8887 143.384C62.2381 143.011 61.7261 142.483 61.3527 141.8C60.9794 141.107 60.7927 140.307 60.7927 139.4C60.7927 138.493 60.9741 137.699 61.3367 137.016C61.6994 136.333 62.2061 135.811 62.8567 135.448C63.5181 135.075 64.2754 134.888 65.1287 134.888C65.9607 134.888 66.6967 135.069 67.3367 135.432C67.9767 135.795 68.4674 136.296 68.8087 136.936C69.1607 137.565 69.3367 138.28 69.3367 139.08ZM67.8327 138.776C67.8327 138.221 67.7101 137.747 67.4647 137.352C67.2194 136.947 66.8834 136.643 66.4567 136.44C66.0407 136.227 65.5767 136.12 65.0647 136.12C64.3287 136.12 63.6994 136.355 63.1767 136.824C62.6647 137.293 62.3714 137.944 62.2967 138.776H67.8327ZM70.7146 139.384C70.7146 138.488 70.8959 137.704 71.2586 137.032C71.6213 136.349 72.1173 135.821 72.7466 135.448C73.3866 135.075 74.0959 134.888 74.8746 134.888C75.6426 134.888 76.3093 135.053 76.8746 135.384C77.4399 135.715 77.8613 136.131 78.1386 136.632V135.032H79.6106V143.8H78.1386V142.168C77.8506 142.68 77.4186 143.107 76.8426 143.448C76.2773 143.779 75.6159 143.944 74.8586 143.944C74.0799 143.944 73.3759 143.752 72.7466 143.368C72.1173 142.984 71.6213 142.445 71.2586 141.752C70.8959 141.059 70.7146 140.269 70.7146 139.384ZM78.1386 139.4C78.1386 138.739 78.0053 138.163 77.7386 137.672C77.4719 137.181 77.1093 136.808 76.6506 136.552C76.2026 136.285 75.7066 136.152 75.1626 136.152C74.6186 136.152 74.1226 136.28 73.6746 136.536C73.2266 136.792 72.8693 137.165 72.6026 137.656C72.3359 138.147 72.2026 138.723 72.2026 139.384C72.2026 140.056 72.3359 140.643 72.6026 141.144C72.8693 141.635 73.2266 142.013 73.6746 142.28C74.1226 142.536 74.6186 142.664 75.1626 142.664C75.7066 142.664 76.2026 142.536 76.6506 142.28C77.1093 142.013 77.4719 141.635 77.7386 141.144C78.0053 140.643 78.1386 140.061 78.1386 139.4ZM83.5271 136.456C83.7831 135.955 84.1458 135.565 84.6151 135.288C85.0951 135.011 85.6764 134.872 86.3591 134.872V136.376H85.9751C84.3431 136.376 83.5271 137.261 83.5271 139.032V143.8H82.0711V135.032H83.5271V136.456ZM91.1439 143.944C90.4719 143.944 89.8692 143.832 89.3359 143.608C88.8025 143.373 88.3812 143.053 88.0719 142.648C87.7625 142.232 87.5919 141.757 87.5599 141.224H89.0639C89.1065 141.661 89.3092 142.019 89.6719 142.296C90.0452 142.573 90.5305 142.712 91.1279 142.712C91.6825 142.712 92.1199 142.589 92.4399 142.344C92.7599 142.099 92.9199 141.789 92.9199 141.416C92.9199 141.032 92.7492 140.749 92.4079 140.568C92.0665 140.376 91.5385 140.189 90.8239 140.008C90.1732 139.837 89.6399 139.667 89.2239 139.496C88.8185 139.315 88.4665 139.053 88.1679 138.712C87.8799 138.36 87.7359 137.901 87.7359 137.336C87.7359 136.888 87.8692 136.477 88.1359 136.104C88.4025 135.731 88.7812 135.437 89.2719 135.224C89.7625 135 90.3225 134.888 90.9519 134.888C91.9225 134.888 92.7065 135.133 93.3039 135.624C93.9012 136.115 94.2212 136.787 94.2639 137.64H92.8079C92.7759 137.181 92.5892 136.813 92.2479 136.536C91.9172 136.259 91.4692 136.12 90.9039 136.12C90.3812 136.12 89.9652 136.232 89.6559 136.456C89.3465 136.68 89.1919 136.973 89.1919 137.336C89.1919 137.624 89.2825 137.864 89.4639 138.056C89.6559 138.237 89.8905 138.387 90.1679 138.504C90.4559 138.611 90.8505 138.733 91.3519 138.872C91.9812 139.043 92.4932 139.213 92.8879 139.384C93.2825 139.544 93.6185 139.789 93.8959 140.12C94.1839 140.451 94.3332 140.883 94.3439 141.416C94.3439 141.896 94.2105 142.328 93.9439 142.712C93.6772 143.096 93.2985 143.4 92.8079 143.624C92.3279 143.837 91.7732 143.944 91.1439 143.944ZM105.721 143.912C104.686 143.912 103.742 143.672 102.889 143.192C102.036 142.701 101.358 142.024 100.857 141.16C100.366 140.285 100.121 139.304 100.121 138.216C100.121 137.128 100.366 136.152 100.857 135.288C101.358 134.413 102.036 133.736 102.889 133.256C103.742 132.765 104.686 132.52 105.721 132.52C106.766 132.52 107.716 132.765 108.569 133.256C109.422 133.736 110.094 134.408 110.585 135.272C111.076 136.136 111.321 137.117 111.321 138.216C111.321 139.315 111.076 140.296 110.585 141.16C110.094 142.024 109.422 142.701 108.569 143.192C107.716 143.672 106.766 143.912 105.721 143.912ZM105.721 142.648C106.5 142.648 107.198 142.467 107.817 142.104C108.446 141.741 108.937 141.224 109.289 140.552C109.652 139.88 109.833 139.101 109.833 138.216C109.833 137.32 109.652 136.541 109.289 135.88C108.937 135.208 108.452 134.691 107.833 134.328C107.214 133.965 106.51 133.784 105.721 133.784C104.932 133.784 104.228 133.965 103.609 134.328C102.99 134.691 102.5 135.208 102.137 135.88C101.785 136.541 101.609 137.32 101.609 138.216C101.609 139.101 101.785 139.88 102.137 140.552C102.5 141.224 102.99 141.741 103.609 142.104C104.238 142.467 104.942 142.648 105.721 142.648ZM116.811 136.232H114.971V143.8H113.515V136.232H112.379V135.032H113.515V134.408C113.515 133.427 113.766 132.712 114.267 132.264C114.779 131.805 115.595 131.576 116.715 131.576V132.792C116.075 132.792 115.622 132.92 115.355 133.176C115.099 133.421 114.971 133.832 114.971 134.408V135.032H116.811V136.232ZM131.366 132.648V143.8H129.91V138.744H124.23V143.8H122.774V132.648H124.23V137.544H129.91V132.648H131.366ZM133.308 139.384C133.308 138.488 133.49 137.704 133.852 137.032C134.215 136.349 134.711 135.821 135.34 135.448C135.98 135.075 136.69 134.888 137.468 134.888C138.236 134.888 138.903 135.053 139.468 135.384C140.034 135.715 140.455 136.131 140.732 136.632V135.032H142.204V143.8H140.732V142.168C140.444 142.68 140.012 143.107 139.436 143.448C138.871 143.779 138.21 143.944 137.452 143.944C136.674 143.944 135.97 143.752 135.34 143.368C134.711 142.984 134.215 142.445 133.852 141.752C133.49 141.059 133.308 140.269 133.308 139.384ZM140.732 139.4C140.732 138.739 140.599 138.163 140.332 137.672C140.066 137.181 139.703 136.808 139.244 136.552C138.796 136.285 138.3 136.152 137.756 136.152C137.212 136.152 136.716 136.28 136.268 136.536C135.82 136.792 135.463 137.165 135.196 137.656C134.93 138.147 134.796 138.723 134.796 139.384C134.796 140.056 134.93 140.643 135.196 141.144C135.463 141.635 135.82 142.013 136.268 142.28C136.716 142.536 137.212 142.664 137.756 142.664C138.3 142.664 138.796 142.536 139.244 142.28C139.703 142.013 140.066 141.635 140.332 141.144C140.599 140.643 140.732 140.061 140.732 139.4ZM148.937 134.872C150.004 134.872 150.868 135.197 151.529 135.848C152.19 136.488 152.521 137.416 152.521 138.632V143.8H151.081V138.84C151.081 137.965 150.862 137.299 150.425 136.84C149.988 136.371 149.39 136.136 148.633 136.136C147.865 136.136 147.252 136.376 146.793 136.856C146.345 137.336 146.121 138.035 146.121 138.952V143.8H144.665V135.032H146.121V136.28C146.409 135.832 146.798 135.485 147.289 135.24C147.79 134.995 148.34 134.872 148.937 134.872ZM154.355 139.384C154.355 138.488 154.537 137.704 154.899 137.032C155.262 136.349 155.758 135.821 156.387 135.448C157.027 135.075 157.742 134.888 158.531 134.888C159.214 134.888 159.849 135.048 160.435 135.368C161.022 135.677 161.47 136.088 161.779 136.6V131.96H163.251V143.8H161.779V142.152C161.491 142.675 161.065 143.107 160.499 143.448C159.934 143.779 159.273 143.944 158.515 143.944C157.737 143.944 157.027 143.752 156.387 143.368C155.758 142.984 155.262 142.445 154.899 141.752C154.537 141.059 154.355 140.269 154.355 139.384ZM161.779 139.4C161.779 138.739 161.646 138.163 161.379 137.672C161.113 137.181 160.75 136.808 160.291 136.552C159.843 136.285 159.347 136.152 158.803 136.152C158.259 136.152 157.763 136.28 157.315 136.536C156.867 136.792 156.51 137.165 156.243 137.656C155.977 138.147 155.843 138.723 155.843 139.384C155.843 140.056 155.977 140.643 156.243 141.144C156.51 141.635 156.867 142.013 157.315 142.28C157.763 142.536 158.259 142.664 158.803 142.664C159.347 142.664 159.843 142.536 160.291 142.28C160.75 142.013 161.113 141.635 161.379 141.144C161.646 140.643 161.779 140.061 161.779 139.4ZM168.816 143.944C168.144 143.944 167.541 143.832 167.008 143.608C166.474 143.373 166.053 143.053 165.744 142.648C165.434 142.232 165.264 141.757 165.232 141.224H166.736C166.778 141.661 166.981 142.019 167.344 142.296C167.717 142.573 168.202 142.712 168.8 142.712C169.354 142.712 169.792 142.589 170.112 142.344C170.432 142.099 170.592 141.789 170.592 141.416C170.592 141.032 170.421 140.749 170.08 140.568C169.738 140.376 169.21 140.189 168.496 140.008C167.845 139.837 167.312 139.667 166.896 139.496C166.49 139.315 166.138 139.053 165.84 138.712C165.552 138.36 165.408 137.901 165.408 137.336C165.408 136.888 165.541 136.477 165.808 136.104C166.074 135.731 166.453 135.437 166.944 135.224C167.434 135 167.994 134.888 168.624 134.888C169.594 134.888 170.378 135.133 170.976 135.624C171.573 136.115 171.893 136.787 171.936 137.64H170.48C170.448 137.181 170.261 136.813 169.92 136.536C169.589 136.259 169.141 136.12 168.576 136.12C168.053 136.12 167.637 136.232 167.328 136.456C167.018 136.68 166.864 136.973 166.864 137.336C166.864 137.624 166.954 137.864 167.136 138.056C167.328 138.237 167.562 138.387 167.84 138.504C168.128 138.611 168.522 138.733 169.024 138.872C169.653 139.043 170.165 139.213 170.56 139.384C170.954 139.544 171.29 139.789 171.568 140.12C171.856 140.451 172.005 140.883 172.016 141.416C172.016 141.896 171.882 142.328 171.616 142.712C171.349 143.096 170.97 143.4 170.48 143.624C170 143.837 169.445 143.944 168.816 143.944ZM61.4005 165.912C60.3659 165.912 59.4219 165.672 58.5685 165.192C57.7152 164.701 57.0379 164.024 56.5365 163.16C56.0459 162.285 55.8005 161.304 55.8005 160.216C55.8005 159.128 56.0459 158.152 56.5365 157.288C57.0379 156.413 57.7152 155.736 58.5685 155.256C59.4219 154.765 60.3659 154.52 61.4005 154.52C62.4459 154.52 63.3952 154.765 64.2485 155.256C65.1019 155.736 65.7739 156.408 66.2645 157.272C66.7552 158.136 67.0005 159.117 67.0005 160.216C67.0005 161.315 66.7552 162.296 66.2645 163.16C65.7739 164.024 65.1019 164.701 64.2485 165.192C63.3952 165.672 62.4459 165.912 61.4005 165.912ZM61.4005 164.648C62.1792 164.648 62.8779 164.467 63.4965 164.104C64.1259 163.741 64.6165 163.224 64.9685 162.552C65.3312 161.88 65.5125 161.101 65.5125 160.216C65.5125 159.32 65.3312 158.541 64.9685 157.88C64.6165 157.208 64.1312 156.691 63.5125 156.328C62.8939 155.965 62.1899 155.784 61.4005 155.784C60.6112 155.784 59.9072 155.965 59.2885 156.328C58.6699 156.691 58.1792 157.208 57.8165 157.88C57.4645 158.541 57.2885 159.32 57.2885 160.216C57.2885 161.101 57.4645 161.88 57.8165 162.552C58.1792 163.224 58.6699 163.741 59.2885 164.104C59.9179 164.467 60.6219 164.648 61.4005 164.648ZM73.1947 156.872C74.2613 156.872 75.1253 157.197 75.7867 157.848C76.448 158.488 76.7787 159.416 76.7787 160.632V165.8H75.3387V160.84C75.3387 159.965 75.12 159.299 74.6827 158.84C74.2453 158.371 73.648 158.136 72.8907 158.136C72.1227 158.136 71.5093 158.376 71.0507 158.856C70.6027 159.336 70.3787 160.035 70.3787 160.952V165.8H68.9227V157.032H70.3787V158.28C70.6667 157.832 71.056 157.485 71.5467 157.24C72.048 156.995 72.5973 156.872 73.1947 156.872ZM84.8787 155.832V159.56H88.9427V160.76H84.8787V164.6H89.4227V165.8H83.4227V154.632H89.4227V155.832H84.8787ZM96.2018 165.8L94.1218 162.536L92.1218 165.8H90.6018L93.4338 161.448L90.6018 157.032H92.2498L94.3298 160.28L96.3138 157.032H97.8338L95.0178 161.368L97.8498 165.8H96.2018ZM100.738 158.648C101.026 158.147 101.453 157.731 102.018 157.4C102.594 157.059 103.261 156.888 104.018 156.888C104.797 156.888 105.501 157.075 106.13 157.448C106.77 157.821 107.271 158.349 107.634 159.032C107.997 159.704 108.178 160.488 108.178 161.384C108.178 162.269 107.997 163.059 107.634 163.752C107.271 164.445 106.77 164.984 106.13 165.368C105.501 165.752 104.797 165.944 104.018 165.944C103.271 165.944 102.61 165.779 102.034 165.448C101.469 165.107 101.037 164.685 100.738 164.184V169.96H99.282V157.032H100.738V158.648ZM106.69 161.384C106.69 160.723 106.557 160.147 106.29 159.656C106.023 159.165 105.661 158.792 105.202 158.536C104.754 158.28 104.258 158.152 103.714 158.152C103.181 158.152 102.685 158.285 102.226 158.552C101.778 158.808 101.415 159.187 101.138 159.688C100.871 160.179 100.738 160.749 100.738 161.4C100.738 162.061 100.871 162.643 101.138 163.144C101.415 163.635 101.778 164.013 102.226 164.28C102.685 164.536 103.181 164.664 103.714 164.664C104.258 164.664 104.754 164.536 105.202 164.28C105.661 164.013 106.023 163.635 106.29 163.144C106.557 162.643 106.69 162.056 106.69 161.384ZM118.095 161.08C118.095 161.357 118.079 161.651 118.047 161.96H111.039C111.092 162.824 111.385 163.501 111.919 163.992C112.463 164.472 113.119 164.712 113.887 164.712C114.516 164.712 115.039 164.568 115.455 164.28C115.881 163.981 116.18 163.587 116.351 163.096H117.919C117.684 163.939 117.215 164.627 116.511 165.16C115.807 165.683 114.932 165.944 113.887 165.944C113.055 165.944 112.308 165.757 111.647 165.384C110.996 165.011 110.484 164.483 110.111 163.8C109.737 163.107 109.551 162.307 109.551 161.4C109.551 160.493 109.732 159.699 110.095 159.016C110.457 158.333 110.964 157.811 111.615 157.448C112.276 157.075 113.033 156.888 113.887 156.888C114.719 156.888 115.455 157.069 116.095 157.432C116.735 157.795 117.225 158.296 117.567 158.936C117.919 159.565 118.095 160.28 118.095 161.08ZM116.591 160.776C116.591 160.221 116.468 159.747 116.223 159.352C115.977 158.947 115.641 158.643 115.215 158.44C114.799 158.227 114.335 158.12 113.823 158.12C113.087 158.12 112.457 158.355 111.935 158.824C111.423 159.293 111.129 159.944 111.055 160.776H116.591ZM121.472 158.456C121.728 157.955 122.091 157.565 122.56 157.288C123.04 157.011 123.622 156.872 124.304 156.872V158.376H123.92C122.288 158.376 121.472 159.261 121.472 161.032V165.8H120.016V157.032H121.472V158.456ZM126.737 155.608C126.46 155.608 126.225 155.512 126.033 155.32C125.841 155.128 125.745 154.893 125.745 154.616C125.745 154.339 125.841 154.104 126.033 153.912C126.225 153.72 126.46 153.624 126.737 153.624C127.004 153.624 127.228 153.72 127.409 153.912C127.601 154.104 127.697 154.339 127.697 154.616C127.697 154.893 127.601 155.128 127.409 155.32C127.228 155.512 127.004 155.608 126.737 155.608ZM127.441 157.032V165.8H125.985V157.032H127.441ZM137.923 161.08C137.923 161.357 137.907 161.651 137.875 161.96H130.867C130.92 162.824 131.213 163.501 131.747 163.992C132.291 164.472 132.947 164.712 133.715 164.712C134.344 164.712 134.867 164.568 135.283 164.28C135.709 163.981 136.008 163.587 136.179 163.096H137.747C137.512 163.939 137.043 164.627 136.339 165.16C135.635 165.683 134.76 165.944 133.715 165.944C132.883 165.944 132.136 165.757 131.475 165.384C130.824 165.011 130.312 164.483 129.939 163.8C129.565 163.107 129.379 162.307 129.379 161.4C129.379 160.493 129.56 159.699 129.923 159.016C130.285 158.333 130.792 157.811 131.443 157.448C132.104 157.075 132.861 156.888 133.715 156.888C134.547 156.888 135.283 157.069 135.923 157.432C136.563 157.795 137.053 158.296 137.395 158.936C137.747 159.565 137.923 160.28 137.923 161.08ZM136.419 160.776C136.419 160.221 136.296 159.747 136.051 159.352C135.805 158.947 135.469 158.643 135.043 158.44C134.627 158.227 134.163 158.12 133.651 158.12C132.915 158.12 132.285 158.355 131.763 158.824C131.251 159.293 130.957 159.944 130.883 160.776H136.419ZM144.117 156.872C145.183 156.872 146.047 157.197 146.709 157.848C147.37 158.488 147.701 159.416 147.701 160.632V165.8H146.261V160.84C146.261 159.965 146.042 159.299 145.605 158.84C145.167 158.371 144.57 158.136 143.813 158.136C143.045 158.136 142.431 158.376 141.973 158.856C141.525 159.336 141.301 160.035 141.301 160.952V165.8H139.845V157.032H141.301V158.28C141.589 157.832 141.978 157.485 142.469 157.24C142.97 156.995 143.519 156.872 144.117 156.872ZM149.535 161.4C149.535 160.493 149.716 159.704 150.079 159.032C150.442 158.349 150.943 157.821 151.583 157.448C152.234 157.075 152.975 156.888 153.807 156.888C154.884 156.888 155.77 157.149 156.463 157.672C157.167 158.195 157.631 158.92 157.855 159.848H156.287C156.138 159.315 155.844 158.893 155.407 158.584C154.98 158.275 154.447 158.12 153.807 158.12C152.975 158.12 152.303 158.408 151.791 158.984C151.279 159.549 151.023 160.355 151.023 161.4C151.023 162.456 151.279 163.272 151.791 163.848C152.303 164.424 152.975 164.712 153.807 164.712C154.447 164.712 154.98 164.563 155.407 164.264C155.834 163.965 156.127 163.539 156.287 162.984H157.855C157.62 163.88 157.151 164.6 156.447 165.144C155.743 165.677 154.863 165.944 153.807 165.944C152.975 165.944 152.234 165.757 151.583 165.384C150.943 165.011 150.442 164.483 150.079 163.8C149.716 163.117 149.535 162.317 149.535 161.4ZM167.798 161.08C167.798 161.357 167.782 161.651 167.75 161.96H160.742C160.795 162.824 161.088 163.501 161.622 163.992C162.166 164.472 162.822 164.712 163.59 164.712C164.219 164.712 164.742 164.568 165.158 164.28C165.584 163.981 165.883 163.587 166.054 163.096H167.622C167.387 163.939 166.918 164.627 166.214 165.16C165.51 165.683 164.635 165.944 163.59 165.944C162.758 165.944 162.011 165.757 161.35 165.384C160.699 165.011 160.187 164.483 159.814 163.8C159.44 163.107 159.254 162.307 159.254 161.4C159.254 160.493 159.435 159.699 159.798 159.016C160.16 158.333 160.667 157.811 161.318 157.448C161.979 157.075 162.736 156.888 163.59 156.888C164.422 156.888 165.158 157.069 165.798 157.432C166.438 157.795 166.928 158.296 167.27 158.936C167.622 159.565 167.798 160.28 167.798 161.08ZM166.294 160.776C166.294 160.221 166.171 159.747 165.926 159.352C165.68 158.947 165.344 158.643 164.918 158.44C164.502 158.227 164.038 158.12 163.526 158.12C162.79 158.12 162.16 158.355 161.638 158.824C161.126 159.293 160.832 159.944 160.758 160.776H166.294Z" fill="#3661DA"/>
<defs>
<filter id="filter0_d_70_136" x="4.88758e-05" y="4.88758e-05" width="223.6" height="223.6" filterUnits="userSpaceOnUse" color-interpolation-filters="sRGB">
<feFlood flood-opacity="0" result="BackgroundImageFix"/>
<feColorMatrix in="SourceAlpha" type="matrix" values="0 0 0 0 0 0 0 0 0 0 0 0 0 0 0 0 0 0 127 0" result="hardAlpha"/>
<feOffset dy="2"/>
<feGaussianBlur stdDeviation="1.9"/>
<feComposite in2="hardAlpha" operator="out"/>
<feColorMatrix type="matrix" values="0 0 0 0 0.819608 0 0 0 0 0.215686 0 0 0 0 0.32549 0 0 0 0.41 0"/>
<feBlend mode="normal" in2="BackgroundImageFix" result="effect1_dropShadow_70_136"/>
<feBlend mode="normal" in="SourceGraphic" in2="effect1_dropShadow_70_136" result="shape"/>
</filter>
</defs>
</svg>
